<svg xmlns="http://www.w3.org/2000/svg" width="95" height="95" viewBox="0 0 95 95"><g transform="translate(0 0)"><path d="M132.424,601.3a47.532,47.532,0,1,1,47.532-47.532A47.586,47.586,0,0,1,132.424,601.3Zm0-6.307Z" transform="translate(-84.892 -506.238)" fill="none"/><path d="M132.424,601.3a47.532,47.532,0,1,1,47.532-47.532A47.586,47.586,0,0,1,132.424,601.3Zm0-88.757a41.225,41.225,0,1,0,41.225,41.225A41.271,41.271,0,0,0,132.424,512.546Z" transform="translate(-84.892 -506.238)" fill="#6637d0"/><g transform="translate(11.442 14.604)"><path d="M164.011,577.619c-.788-.811-1.655-1.55-2.515-2.289-.8-.7-1.831-1.759-1.624-2.891h0l-.172.072a3.481,3.481,0,0,0-1.155,1.413,7.534,7.534,0,0,0-.353,1.008,2.842,2.842,0,0,0,.895,3.067l3.069,2.779h0a1.493,1.493,0,0,1,.436,1.362,5.316,5.316,0,0,1-.364,1.76h0a7.93,7.93,0,0,0,2.376-3.67A2.664,2.664,0,0,0,164.011,577.619Z" transform="translate(-125.235 -546.995)" fill="#f4a950"/><path d="M175.654,559.192a11.269,11.269,0,0,0-3.114-5,8.607,8.607,0,0,0-1.218-.966,13.887,13.887,0,0,0-1.358-.734,6.409,6.409,0,0,0-1.457-.554l-.763-.218-.8-.093a10.63,10.63,0,0,0-6.163,1.251,16.1,16.1,0,0,0-4.7,3.782,28.356,28.356,0,0,0-5.516,9.918c-2.335,5.232-4.6,10.49-6.852,15.758q-1.927,4.545-3.817,9.106-1.891-4.561-3.815-9.108-3.366-7.9-6.847-15.76a28.365,28.365,0,0,0-5.52-9.919,16.059,16.059,0,0,0-4.7-3.785,10.643,10.643,0,0,0-6.167-1.251l-.8.094-.763.219a6.3,6.3,0,0,0-1.459.552,13.9,13.9,0,0,0-1.359.736,8.576,8.576,0,0,0-1.218.967,11.286,11.286,0,0,0-3.115,5,7.456,7.456,0,0,0,.551,5.765,3.358,3.358,0,0,0,1.078,1.09,1.632,1.632,0,0,0,1.584.106,1.6,1.6,0,0,0,.873-1.194.962.962,0,0,0-.165-.716c-.07-.094-.23-.191-.355-.106a.218.218,0,0,0-.1.155c-.034.054.079.16.071.078-.007.065-.068-.032-.037-.07a.164.164,0,0,1,.1-.1c.09-.036.165.038.209.122a.782.782,0,0,1,.01.578,1.209,1.209,0,0,1-.8.771c-.719.215-1.286-.489-1.589-1.193a6.1,6.1,0,0,1,.3-4.667,9.319,9.319,0,0,1,3.007-3.656,6.582,6.582,0,0,1,2.034-.979,4.517,4.517,0,0,1,1.085-.263l.538-.1.541,0c2.881-.043,5.489,1.985,7.374,4.552a23.672,23.672,0,0,1,3.868,8.2l-.028.127.285.768q3,8.066,6.141,16.072T137.1,600.5l2.8,6.883,2.8-6.883q3.237-7.968,6.383-15.974c2.081-5.344,4.141-10.7,6.135-16.074l.284-.766-.027-.125a23.681,23.681,0,0,1,3.873-8.206c1.881-2.571,4.5-4.6,7.379-4.553l.542,0,.538.105a4.4,4.4,0,0,1,1.087.262,6.582,6.582,0,0,1,2.036.981,9.344,9.344,0,0,1,3.007,3.659,6.1,6.1,0,0,1,.3,4.67c-.3.7-.871,1.409-1.592,1.193a1.206,1.206,0,0,1-.8-.772.782.782,0,0,1,.01-.578c.045-.085.12-.158.21-.123a.166.166,0,0,1,.1.1c.031.038-.03.135-.038.07-.007.082.105-.024.071-.078a.213.213,0,0,0-.1-.155c-.124-.085-.285.011-.354.105a.956.956,0,0,0-.165.716,1.6,1.6,0,0,0,.872,1.193,1.63,1.63,0,0,0,1.582-.106,3.346,3.346,0,0,0,1.077-1.089A7.449,7.449,0,0,0,175.654,559.192Z" transform="translate(-103.806 -538.746)" fill="#6637d0"/><path d="M167.367,573.536c-1.751-4.267-3.5-8.533-5.37-12.743-1.848-4.218-3.773-8.4-5.729-12.563s-3.98-8.294-6.028-12.413l-2.7-5.438-2.7,5.438c-2.045,4.12-4.064,8.253-6.023,12.416s-3.876,8.347-5.727,12.564-3.619,8.475-5.369,12.743c-1.687,4.3-3.388,8.59-4.847,13,2.652-3.817,5.062-7.754,7.487-11.685,2.361-3.962,4.717-7.927,6.965-11.945s4.453-8.058,6.607-12.124q1.83-3.457,3.608-6.943,1.781,3.485,3.606,6.946c2.156,4.065,4.342,8.114,6.605,12.125,2.246,4.02,4.6,7.983,6.965,11.945,2.428,3.929,4.837,7.867,7.494,11.681C170.752,582.127,169.05,577.836,167.367,573.536Z" transform="translate(-111.338 -530.379)" fill="#f4a950"/></g></g></svg>